<?xml version="1.0" standalone="no"?>
<!DOCTYPE svg PUBLIC "-//W3C//DTD SVG 20010904//EN"
 "http://www.w3.org/TR/2001/REC-SVG-20010904/DTD/svg10.dtd">
<svg version="1.0" xmlns="http://www.w3.org/2000/svg"
 width="512.000000pt" height="512.000000pt" viewBox="0 0 512.000000 512.000000"
 preserveAspectRatio="xMidYMid meet">
<metadata>
Created by potrace 1.11, written by Peter Selinger 2001-2013
</metadata>
<g transform="translate(0.000000,512.000000) scale(0.100000,-0.100000)"
fill="#000000" stroke="none">
<path d="M0 2560 l0 -2560 1744 0 c1153 0 1747 3 1751 10 3 6 12 10 18 10 7 0
6 -4 -3 -10 -9 -6 -10 -10 -3 -10 19 0 27 21 12 31 -11 7 -10 9 4 9 12 0 16 4
11 13 -5 7 -2 7 10 -2 9 -8 16 -10 14 -5 -4 12 39 54 47 46 4 -4 6 -2 5 3 -5
22 1 33 18 31 11 -1 17 6 17 19 0 11 7 20 15 20 9 0 29 13 45 29 17 16 23 24
13 17 -13 -9 -18 -9 -24 0 -4 7 -3 9 4 5 6 -3 14 -1 17 5 4 5 14 8 22 4 14 -5
14 -3 2 12 -7 10 -9 15 -4 10 4 -4 16 3 24 15 9 13 23 23 31 23 8 0 15 9 15
20 0 11 7 20 15 20 9 0 29 13 45 29 17 16 21 23 10 15 -19 -13 -19 -13 -6 4 8
10 21 15 29 12 13 -5 13 -3 1 12 -7 10 -9 15 -5 11 5 -4 15 0 23 10 8 9 12 11
8 5 -4 -9 -1 -11 10 -7 9 4 14 9 11 11 -2 2 16 24 40 47 24 24 41 46 38 49 -4
4 3 4 16 2 19 -4 20 -2 8 12 -11 15 -11 16 6 10 17 -7 17 -6 5 9 -13 16 -12
16 9 5 18 -10 22 -9 22 4 0 10 -5 13 -12 9 -7 -4 -8 -3 -4 4 4 6 14 8 23 5 11
-4 14 -3 9 5 -4 7 -2 12 4 12 6 0 8 5 4 12 -5 8 0 7 11 -2 10 -8 16 -10 12 -3
-5 7 5 24 23 41 16 16 27 32 24 35 -4 4 2 5 13 3 14 -3 20 1 19 12 -1 11 6 16
17 15 14 -1 17 4 14 17 -3 12 0 17 8 13 8 -2 18 5 25 16 6 12 18 21 26 21 8 0
12 5 9 10 -3 6 1 10 10 10 8 0 18 7 21 15 4 8 10 12 15 9 5 -3 6 3 2 12 -5 13
-3 15 7 9 10 -6 12 -4 7 9 -4 10 -3 15 3 11 6 -3 10 0 10 7 0 10 3 9 11 -2 8
-12 10 -9 6 11 -3 21 0 25 13 22 11 -3 19 3 23 17 4 16 11 21 23 16 12 -5 15
-2 10 10 -5 13 -2 15 14 11 10 -3 19 -2 18 2 -4 16 15 51 24 45 8 -5 9 -1 5
10 -4 10 -3 15 3 11 6 -3 10 0 10 7 0 9 3 9 10 -2 9 -13 10 -13 10 0 0 21 38
52 53 43 7 -4 5 2 -3 12 -14 17 -13 18 4 12 14 -6 17 -4 12 9 -5 13 -2 15 14
11 18 -5 19 -3 8 11 -9 11 -10 14 -1 8 7 -4 21 -2 30 4 16 10 16 11 1 6 -11
-3 -15 -1 -12 8 3 8 13 13 22 12 8 0 21 9 27 22 7 12 16 26 20 30 5 4 5 2 2
-4 -3 -6 0 -11 7 -11 8 0 11 8 8 19 -2 10 1 18 7 18 7 0 9 -5 5 -12 -4 -7 -3
-8 5 -4 9 6 9 11 -1 23 -11 14 -10 15 12 8 23 -7 24 -7 10 10 -14 17 -13 18 6
13 14 -4 28 1 39 15 15 17 15 19 2 14 -11 -4 -14 -2 -11 7 3 8 13 13 22 12 8
0 21 9 27 22 7 12 16 26 20 30 5 4 5 2 2 -4 -3 -6 0 -11 7 -11 8 0 11 8 8 19
-2 10 1 18 7 18 7 0 9 -5 5 -12 -4 -7 -3 -8 5 -4 9 6 9 11 -1 23 -11 14 -10
15 10 9 18 -6 21 -4 15 10 -5 13 -3 16 9 12 9 -4 23 3 33 14 16 19 16 20 1 15
-10 -4 -15 -3 -11 3 3 6 12 10 19 10 8 0 19 7 26 15 7 8 17 12 24 8 7 -4 6 -1
-1 9 -15 18 -5 32 13 17 9 -8 11 -5 8 13 -2 13 -2 17 2 10 3 -6 10 -9 15 -6 6
3 5 12 -3 22 -11 13 -10 15 5 9 16 -6 17 82 17 1768 l0 1775 -2560 0 -2560 0
0 -2560z m2670 1675 l0 -115 -115 0 -115 0 0 115 0 115 115 0 115 0 0 -115z
m-635 -103 c28 -48 51 -92 53 -99 2 -7 -21 -24 -50 -39 -29 -15 -72 -40 -95
-55 l-41 -29 -57 101 c-32 55 -54 103 -51 107 13 13 171 102 181 102 6 0 33
-39 60 -88z m1196 37 c49 -28 89 -53 89 -57 0 -3 -25 -50 -56 -104 l-55 -98
-42 29 c-23 15 -66 40 -94 55 -29 14 -53 30 -53 35 0 16 104 191 114 191 5 0
49 -23 97 -51z m-446 -294 c146 -40 300 -132 413 -246 76 -77 121 -143 172
-252 63 -134 75 -191 75 -362 0 -128 -4 -162 -23 -228 -32 -109 -89 -242 -187
-437 -150 -299 -208 -458 -223 -610 l-7 -75 -450 0 -450 0 -3 35 c-12 163 -53
281 -217 625 -198 417 -232 528 -222 735 19 405 330 758 732 830 76 14 320 4
390 -15z m-1302 -119 c12 -7 55 -32 95 -55 l72 -42 -29 -42 c-15 -23 -40 -66
-55 -94 -14 -29 -29 -53 -32 -53 -14 0 -194 106 -194 114 0 16 101 186 111
186 5 0 20 -6 32 -14z m2243 -83 l53 -93 -98 -55 c-53 -30 -100 -55 -104 -55
-4 0 -19 24 -33 53 -15 28 -40 71 -55 94 l-29 42 92 55 c51 30 99 54 107 53 7
-1 37 -44 67 -94z m-2283 -665 l-2 -113 -115 -3 -116 -3 0 116 0 115 118 0
117 0 -2 -112z m2457 -3 l0 -116 -116 3 -116 3 -2 113 -1 112 118 0 117 0 0
-115z m-2280 -642 c8 -19 0 -26 -82 -73 -49 -28 -91 -50 -93 -48 -12 13 -105
179 -105 187 0 5 44 35 98 65 l97 56 38 -83 c22 -45 43 -92 47 -104z m2057
131 c54 -31 99 -57 100 -58 3 -2 -101 -184 -110 -192 -5 -5 -187 93 -187 101
0 1 13 31 29 66 16 35 36 81 44 102 9 20 18 37 21 37 2 0 49 -25 103 -56z
m-748 -947 c65 -23 94 -101 61 -162 -29 -54 -38 -55 -435 -55 -397 0 -406 1
-435 55 -33 61 -4 139 61 162 48 17 700 17 748 0z m1942 -210 c-10 -9 -11 -8
-5 6 3 10 9 15 12 12 3 -3 0 -11 -7 -18z m-1907 -146 c35 -33 50 -80 36 -117
-17 -44 -50 -74 -90 -80 -30 -5 -40 -13 -60 -51 -32 -61 -110 -128 -178 -153
-72 -28 -183 -24 -254 7 -60 27 -129 91 -159 148 -17 32 -30 45 -45 45 -36 0
-88 43 -101 83 -18 54 10 116 62 138 11 4 187 7 392 6 l371 -2 26 -24z m1749
-12 c-8 -8 -13 -7 -18 2 -5 8 -4 10 3 5 7 -4 12 -2 12 5 0 7 3 9 7 6 4 -4 2
-12 -4 -18z"/>
<path d="M2465 3671 c-180 -29 -324 -112 -436 -252 -92 -113 -140 -252 -141
-399 -1 -156 29 -242 218 -631 110 -229 194 -437 194 -483 0 -15 24 -16 251
-14 l252 3 18 66 c29 105 72 205 204 479 179 370 209 469 193 640 -8 85 -26
145 -71 240 -46 95 -186 233 -287 282 -124 61 -278 87 -395 69z"/>
</g>
</svg>
